<svg xmlns="http://www.w3.org/2000/svg" xmlns:xlink="http://www.w3.org/1999/xlink" width="500" zoomAndPan="magnify" viewBox="0 0 375 374.999991" height="500" preserveAspectRatio="xMidYMid meet" version="1.0"><defs><clipPath id="7a365f6679"><path d="M 75 0 L 300 0 C 341.421875 0 375 33.578125 375 75 L 375 300 C 375 341.421875 341.421875 375 300 375 L 75 375 C 33.578125 375 0 341.421875 0 300 L 0 75 C 0 33.578125 33.578125 0 75 0 Z M 75 0 " clip-rule="nonzero"/></clipPath><clipPath id="29c84663a1"><path d="M 0 0 L 375 0 L 375 375 L 0 375 Z M 0 0 " clip-rule="nonzero"/></clipPath><clipPath id="990b275beb"><path d="M 75 0 L 300 0 C 341.421875 0 375 33.578125 375 75 L 375 300 C 375 341.421875 341.421875 375 300 375 L 75 375 C 33.578125 375 0 341.421875 0 300 L 0 75 C 0 33.578125 33.578125 0 75 0 Z M 75 0 " clip-rule="nonzero"/></clipPath><clipPath id="9515234fd2"><rect x="0" width="375" y="0" height="375"/></clipPath><clipPath id="d99b0afc66"><path d="M 26.757812 27.242188 L 122.191406 27.242188 L 122.191406 122.304688 L 26.757812 122.304688 Z M 26.757812 27.242188 " clip-rule="nonzero"/></clipPath><clipPath id="2c46fded09"><path d="M 74.449219 27.242188 C 48.109375 27.242188 26.757812 48.523438 26.757812 74.773438 C 26.757812 101.027344 48.109375 122.304688 74.449219 122.304688 C 100.789062 122.304688 122.140625 101.027344 122.140625 74.773438 C 122.140625 48.523438 100.789062 27.242188 74.449219 27.242188 Z M 74.449219 27.242188 " clip-rule="nonzero"/></clipPath><clipPath id="1d90213652"><path d="M 0.757812 0.242188 L 96.160156 0.242188 L 96.160156 95.304688 L 0.757812 95.304688 Z M 0.757812 0.242188 " clip-rule="nonzero"/></clipPath><clipPath id="8eafcec151"><path d="M 48.449219 0.242188 C 22.109375 0.242188 0.757812 21.523438 0.757812 47.773438 C 0.757812 74.027344 22.109375 95.304688 48.449219 95.304688 C 74.789062 95.304688 96.140625 74.027344 96.140625 47.773438 C 96.140625 21.523438 74.789062 0.242188 48.449219 0.242188 Z M 48.449219 0.242188 " clip-rule="nonzero"/></clipPath><clipPath id="bf12ea2d6d"><rect x="0" width="97" y="0" height="96"/></clipPath><clipPath id="f0dbade3f0"><path d="M 26.757812 252.800781 L 346.515625 252.800781 L 346.515625 346.246094 L 26.757812 346.246094 Z M 26.757812 252.800781 " clip-rule="nonzero"/></clipPath><clipPath id="dabd7c5523"><path d="M 73.480469 252.800781 L 299.777344 252.800781 C 312.171875 252.800781 324.054688 257.722656 332.816406 266.484375 C 341.578125 275.246094 346.5 287.132812 346.5 299.523438 C 346.5 311.914062 341.578125 323.796875 332.816406 332.5625 C 324.054688 341.324219 312.171875 346.246094 299.777344 346.246094 L 73.480469 346.246094 C 61.089844 346.246094 49.207031 341.324219 40.445312 332.5625 C 31.679688 323.796875 26.757812 311.914062 26.757812 299.523438 C 26.757812 287.132812 31.679688 275.246094 40.445312 266.484375 C 49.207031 257.722656 61.089844 252.800781 73.480469 252.800781 Z M 73.480469 252.800781 " clip-rule="nonzero"/></clipPath><clipPath id="85743eea8f"><path d="M 0.757812 0.800781 L 320.515625 0.800781 L 320.515625 94.246094 L 0.757812 94.246094 Z M 0.757812 0.800781 " clip-rule="nonzero"/></clipPath><clipPath id="0d26961baf"><path d="M 47.480469 0.800781 L 273.777344 0.800781 C 286.171875 0.800781 298.054688 5.722656 306.816406 14.484375 C 315.578125 23.246094 320.5 35.132812 320.5 47.523438 C 320.5 59.914062 315.578125 71.796875 306.816406 80.5625 C 298.054688 89.324219 286.171875 94.246094 273.777344 94.246094 L 47.480469 94.246094 C 35.089844 94.246094 23.207031 89.324219 14.445312 80.5625 C 5.679688 71.796875 0.757812 59.914062 0.757812 47.523438 C 0.757812 35.132812 5.679688 23.246094 14.445312 14.484375 C 23.207031 5.722656 35.089844 0.800781 47.480469 0.800781 Z M 47.480469 0.800781 " clip-rule="nonzero"/></clipPath><clipPath id="6d1abb8b01"><rect x="0" width="321" y="0" height="95"/></clipPath><clipPath id="9fc295ddbe"><path d="M 249.839844 27.027344 L 346.5 27.027344 L 346.5 235.078125 L 249.839844 235.078125 Z M 249.839844 27.027344 " clip-rule="nonzero"/></clipPath><clipPath id="3a9b57ee11"><path d="M 249.839844 186.746094 L 249.839844 75.566406 C 249.839844 62.75 254.929688 50.457031 263.992188 41.394531 C 273.058594 32.328125 285.351562 27.238281 298.167969 27.238281 C 310.988281 27.238281 323.28125 32.328125 332.34375 41.394531 C 341.40625 50.457031 346.5 62.75 346.5 75.566406 L 346.5 186.746094 C 346.5 199.566406 341.40625 211.859375 332.34375 220.921875 C 323.28125 229.984375 310.988281 235.078125 298.167969 235.078125 C 285.351562 235.078125 273.058594 229.984375 263.992188 220.921875 C 254.929688 211.859375 249.839844 199.566406 249.839844 186.746094 Z M 249.839844 186.746094 " clip-rule="nonzero"/></clipPath><clipPath id="99338798ec"><path d="M 0.839844 0.121094 L 97.5 0.121094 L 97.5 208.078125 L 0.839844 208.078125 Z M 0.839844 0.121094 " clip-rule="nonzero"/></clipPath><clipPath id="5c793c5690"><path d="M 0.839844 159.746094 L 0.839844 48.566406 C 0.839844 35.75 5.929688 23.457031 14.992188 14.394531 C 24.058594 5.328125 36.351562 0.238281 49.167969 0.238281 C 61.988281 0.238281 74.28125 5.328125 83.34375 14.394531 C 92.40625 23.457031 97.5 35.75 97.5 48.566406 L 97.5 159.746094 C 97.5 172.566406 92.40625 184.859375 83.34375 193.921875 C 74.28125 202.984375 61.988281 208.078125 49.167969 208.078125 C 36.351562 208.078125 24.058594 202.984375 14.992188 193.921875 C 5.929688 184.859375 0.839844 172.566406 0.839844 159.746094 Z M 0.839844 159.746094 " clip-rule="nonzero"/></clipPath><clipPath id="efe4cc9b43"><rect x="0" width="98" y="0" height="209"/></clipPath><clipPath id="ebe926390a"><path d="M 26.757812 140.023438 L 122.191406 140.023438 L 122.191406 235.085938 L 26.757812 235.085938 Z M 26.757812 140.023438 " clip-rule="nonzero"/></clipPath><clipPath id="ee7f75d94c"><path d="M 74.449219 140.023438 C 48.109375 140.023438 26.757812 161.300781 26.757812 187.554688 C 26.757812 213.804688 48.109375 235.085938 74.449219 235.085938 C 100.789062 235.085938 122.140625 213.804688 122.140625 187.554688 C 122.140625 161.300781 100.789062 140.023438 74.449219 140.023438 Z M 74.449219 140.023438 " clip-rule="nonzero"/></clipPath><clipPath id="5aba152c55"><path d="M 0.757812 0.0234375 L 96.160156 0.0234375 L 96.160156 95.085938 L 0.757812 95.085938 Z M 0.757812 0.0234375 " clip-rule="nonzero"/></clipPath><clipPath id="163bc11061"><path d="M 48.449219 0.0234375 C 22.109375 0.0234375 0.757812 21.300781 0.757812 47.554688 C 0.757812 73.804688 22.109375 95.085938 48.449219 95.085938 C 74.789062 95.085938 96.140625 73.804688 96.140625 47.554688 C 96.140625 21.300781 74.789062 0.0234375 48.449219 0.0234375 Z M 48.449219 0.0234375 " clip-rule="nonzero"/></clipPath><clipPath id="8cab40fdcf"><rect x="0" width="97" y="0" height="96"/></clipPath><clipPath id="e670632291"><path d="M 138.300781 27.242188 L 233.730469 27.242188 L 233.730469 122.304688 L 138.300781 122.304688 Z M 138.300781 27.242188 " clip-rule="nonzero"/></clipPath><clipPath id="039ad544bf"><path d="M 185.992188 27.242188 C 159.652344 27.242188 138.300781 48.523438 138.300781 74.773438 C 138.300781 101.027344 159.652344 122.304688 185.992188 122.304688 C 212.328125 122.304688 233.683594 101.027344 233.683594 74.773438 C 233.683594 48.523438 212.328125 27.242188 185.992188 27.242188 Z M 185.992188 27.242188 " clip-rule="nonzero"/></clipPath><clipPath id="3e0d4af6a1"><path d="M 0.300781 0.242188 L 95.730469 0.242188 L 95.730469 95.304688 L 0.300781 95.304688 Z M 0.300781 0.242188 " clip-rule="nonzero"/></clipPath><clipPath id="5f416bd949"><path d="M 47.992188 0.242188 C 21.652344 0.242188 0.300781 21.523438 0.300781 47.773438 C 0.300781 74.027344 21.652344 95.304688 47.992188 95.304688 C 74.328125 95.304688 95.683594 74.027344 95.683594 47.773438 C 95.683594 21.523438 74.328125 0.242188 47.992188 0.242188 Z M 47.992188 0.242188 " clip-rule="nonzero"/></clipPath><clipPath id="6715b0419f"><rect x="0" width="96" y="0" height="96"/></clipPath><clipPath id="9c58593b8c"><path d="M 138.300781 140.023438 L 233.730469 140.023438 L 233.730469 235.085938 L 138.300781 235.085938 Z M 138.300781 140.023438 " clip-rule="nonzero"/></clipPath><clipPath id="132b5514ff"><path d="M 185.992188 140.023438 C 159.652344 140.023438 138.300781 161.300781 138.300781 187.554688 C 138.300781 213.804688 159.652344 235.085938 185.992188 235.085938 C 212.328125 235.085938 233.683594 213.804688 233.683594 187.554688 C 233.683594 161.300781 212.328125 140.023438 185.992188 140.023438 Z M 185.992188 140.023438 " clip-rule="nonzero"/></clipPath><clipPath id="172f8332fa"><path d="M 0.300781 0.0234375 L 95.730469 0.0234375 L 95.730469 95.085938 L 0.300781 95.085938 Z M 0.300781 0.0234375 " clip-rule="nonzero"/></clipPath><clipPath id="8c75d56b6d"><path d="M 47.992188 0.0234375 C 21.652344 0.0234375 0.300781 21.300781 0.300781 47.554688 C 0.300781 73.804688 21.652344 95.085938 47.992188 95.085938 C 74.328125 95.085938 95.683594 73.804688 95.683594 47.554688 C 95.683594 21.300781 74.328125 0.0234375 47.992188 0.0234375 Z M 47.992188 0.0234375 " clip-rule="nonzero"/></clipPath><clipPath id="8c80ba7c97"><rect x="0" width="96" y="0" height="96"/></clipPath></defs><g clip-path="url(#7a365f6679)"><g transform="matrix(1, 0, 0, 1, 0, 0)"><g clip-path="url(#9515234fd2)"><g clip-path="url(#29c84663a1)"><g clip-path="url(#990b275beb)"><rect x="-82.5" width="540" fill="#000000" height="539.999987" y="-82.499998" fill-opacity="1"/></g></g></g></g></g><g clip-path="url(#d99b0afc66)"><g clip-path="url(#2c46fded09)"><g transform="matrix(1, 0, 0, 1, 26, 27)"><g clip-path="url(#bf12ea2d6d)"><g clip-path="url(#1d90213652)"><g clip-path="url(#8eafcec151)"><path fill="#575757" d="M 0.757812 0.242188 L 96.191406 0.242188 L 96.191406 95.304688 L 0.757812 95.304688 Z M 0.757812 0.242188 " fill-opacity="1" fill-rule="nonzero"/></g></g></g></g></g></g><g clip-path="url(#f0dbade3f0)"><g clip-path="url(#dabd7c5523)"><g transform="matrix(1, 0, 0, 1, 26, 252)"><g clip-path="url(#6d1abb8b01)"><g clip-path="url(#85743eea8f)"><g clip-path="url(#0d26961baf)"><path fill="#fd4747" d="M 0.757812 0.800781 L 320.515625 0.800781 L 320.515625 94.246094 L 0.757812 94.246094 Z M 0.757812 0.800781 " fill-opacity="1" fill-rule="nonzero"/></g></g></g></g></g></g><g clip-path="url(#9fc295ddbe)"><g clip-path="url(#3a9b57ee11)"><g transform="matrix(1, 0, 0, 1, 249, 27)"><g clip-path="url(#efe4cc9b43)"><g clip-path="url(#99338798ec)"><g clip-path="url(#5c793c5690)"><path fill="#fd4747" d="M 0.839844 208.078125 L 0.839844 0.40625 L 97.5 0.40625 L 97.5 208.078125 Z M 0.839844 208.078125 " fill-opacity="1" fill-rule="nonzero"/></g></g></g></g></g></g><g clip-path="url(#ebe926390a)"><g clip-path="url(#ee7f75d94c)"><g transform="matrix(1, 0, 0, 1, 26, 140)"><g clip-path="url(#8cab40fdcf)"><g clip-path="url(#5aba152c55)"><g clip-path="url(#163bc11061)"><path fill="#575757" d="M 0.757812 0.0234375 L 96.191406 0.0234375 L 96.191406 95.085938 L 0.757812 95.085938 Z M 0.757812 0.0234375 " fill-opacity="1" fill-rule="nonzero"/></g></g></g></g></g></g><g clip-path="url(#e670632291)"><g clip-path="url(#039ad544bf)"><g transform="matrix(1, 0, 0, 1, 138, 27)"><g clip-path="url(#6715b0419f)"><g clip-path="url(#3e0d4af6a1)"><g clip-path="url(#5f416bd949)"><path fill="#575757" d="M 0.300781 0.242188 L 95.730469 0.242188 L 95.730469 95.304688 L 0.300781 95.304688 Z M 0.300781 0.242188 " fill-opacity="1" fill-rule="nonzero"/></g></g></g></g></g></g><g clip-path="url(#9c58593b8c)"><g clip-path="url(#132b5514ff)"><g transform="matrix(1, 0, 0, 1, 138, 140)"><g clip-path="url(#8c80ba7c97)"><g clip-path="url(#172f8332fa)"><g clip-path="url(#8c75d56b6d)"><path fill="#ffffff" d="M 0.300781 0.0234375 L 95.730469 0.0234375 L 95.730469 95.085938 L 0.300781 95.085938 Z M 0.300781 0.0234375 " fill-opacity="1" fill-rule="nonzero"/></g></g></g></g></g></g></svg>